<svg width="49" height="47" viewBox="0 0 49 47" fill="none" xmlns="http://www.w3.org/2000/svg">
<path fill-rule="evenodd" clip-rule="evenodd" d="M3.0461 29.3359C3.81662 32.0331 14.0465 31.3828 25.8952 27.8836C10.5892 30.3307 6.51478 30.0745 6.05034 28.4487C5.58589 26.8229 7.2784 24.7663 12.0506 22.1684C6.17984 24.8352 2.54418 27.579 3.0461 29.3359Z" fill="white"/>
<path fill-rule="evenodd" clip-rule="evenodd" d="M45.9539 16.6641C45.1834 13.9669 34.9535 14.6172 23.1048 18.1164C38.4108 15.6693 42.4852 15.9255 42.9497 17.5513C43.4141 19.1771 41.7216 21.2337 36.9494 23.8316C42.8202 21.1648 46.4558 18.421 45.9539 16.6641Z" fill="white"/>
<path fill-rule="evenodd" clip-rule="evenodd" d="M26.9249 23.095C26.9416 23.0924 26.9584 23.0899 26.9752 23.0875C26.9597 23.0901 26.943 23.0926 26.9249 23.095Z" fill="white"/>
<path fill-rule="evenodd" clip-rule="evenodd" d="M22.1044 23.095C22.0863 23.0926 22.0695 23.0901 22.054 23.0875C22.0709 23.0899 22.0877 23.0924 22.1044 23.095Z" fill="white"/>
<path fill-rule="evenodd" clip-rule="evenodd" d="M22.1044 22.936C22.0877 22.9386 22.0709 22.9412 22.054 22.9436C22.0695 22.941 22.0863 22.9384 22.1044 22.936Z" fill="white"/>
<path fill-rule="evenodd" clip-rule="evenodd" d="M26.9249 22.936C26.943 22.9384 26.9597 22.941 26.9752 22.9436C26.9584 22.9412 26.9416 22.9386 26.9249 22.936Z" fill="white"/>
<path d="M26.9752 22.9436C26.9584 22.9412 26.9416 22.9386 26.9249 22.936C25.6122 22.7315 24.7944 22.0312 24.5746 19.7526L24.5742 19.7485C24.5689 19.696 24.5549 19.6665 24.5411 19.651C24.5312 19.64 24.5214 19.6361 24.5146 19.6361C24.5079 19.6361 24.498 19.64 24.4882 19.651C24.4743 19.6665 24.4604 19.696 24.4551 19.7485L24.4547 19.7526C24.2348 22.0312 23.417 22.7315 22.1044 22.936C22.0877 22.9386 22.0709 22.9412 22.054 22.9436C21.9421 22.9627 21.8953 22.9872 21.8805 23.004C21.8765 23.0085 21.8748 23.0124 21.8748 23.0155C21.8748 23.0187 21.8765 23.0226 21.8805 23.0271C21.8953 23.0439 21.9421 23.0684 22.054 23.0875C22.0709 23.0899 22.0877 23.0924 22.1044 23.095C23.417 23.2996 24.2348 23.9999 24.4547 26.2784L24.4551 26.2826C24.4604 26.3351 24.4743 26.3646 24.4882 26.3801C24.498 26.3911 24.5079 26.395 24.5146 26.395C24.5214 26.395 24.5312 26.3911 24.5411 26.3801C24.5549 26.3646 24.5689 26.3351 24.5742 26.2826L24.5746 26.2784C24.7944 23.9999 25.6122 23.2996 26.9249 23.095C26.9416 23.0924 26.9584 23.0899 26.9752 23.0875C27.0871 23.0684 27.134 23.0439 27.1488 23.0271C27.1527 23.0226 27.1544 23.0187 27.1544 23.0155C27.1544 23.0124 27.1527 23.0085 27.1488 23.004C27.134 22.9872 27.0871 22.9627 26.9752 22.9436Z" fill="white"/>
</svg>
