<svg width="84" height="91" viewBox="0 0 84 91" fill="none" xmlns="http://www.w3.org/2000/svg">
<path d="M29.3955 23.5027C30.3734 23.6811 31.3109 23.0329 31.4893 22.0549C31.6677 21.077 31.0195 20.1395 30.0415 19.9611L29.3955 23.5027ZM6.9394 44.9357C7.4333 45.7984 8.533 46.0975 9.3958 45.6036C10.2586 45.1097 10.5576 44.0101 10.0637 43.1473L6.9394 44.9357ZM15.6936 50.7456C15.0251 50.0099 13.8867 49.9554 13.1509 50.6239C12.4151 51.2924 12.3606 52.4308 13.0291 53.1666L15.6936 50.7456ZM74.9207 73.5149C75.7417 72.9543 75.9527 71.8343 75.392 71.0134C74.8314 70.1924 73.7114 69.9814 72.8905 70.5421L74.9207 73.5149ZM30.0415 19.9611C24.4713 18.945 19.2849 18.8965 14.9739 19.9375C10.6549 20.9805 7.0842 23.1575 5.056 26.6761L8.1749 28.474C9.5694 26.0548 12.1449 24.3242 15.8189 23.437C19.501 22.5478 24.1548 22.5467 29.3955 23.5027L30.0415 19.9611ZM5.056 26.6761C2.0431 31.9028 3.2782 38.5398 6.9394 44.9357L10.0637 43.1473C6.658 37.1977 6.1089 32.058 8.1749 28.474L5.056 26.6761ZM13.0291 53.1666C17.6386 58.24 23.7159 63.1354 30.8479 67.2596L32.65 64.1432C25.8082 60.1868 20.0299 55.5184 15.6936 50.7456L13.0291 53.1666ZM30.8479 67.2596C39.3441 72.1725 48.0466 75.2444 55.7352 76.3607C63.3591 77.4676 70.2745 76.688 74.9207 73.5149L72.8905 70.5421C69.3256 72.9766 63.4903 73.8489 56.2525 72.7981C49.0794 71.7566 40.8091 68.8612 32.65 64.1432L30.8479 67.2596ZM83.3591 68.9076C83.3591 65.4337 80.5461 62.6127 77.0711 62.6127V66.2127C78.5531 66.2127 79.7591 67.4166 79.7591 68.9076H83.3591ZM77.0711 62.6127C73.5957 62.6127 70.7832 65.4337 70.7832 68.9076H74.3832C74.3832 67.4166 75.5893 66.2127 77.0711 66.2127V62.6127ZM70.7832 68.9076C70.7832 72.3816 73.5957 75.2026 77.0711 75.2026V71.6026C75.5893 71.6026 74.3832 70.3987 74.3832 68.9076H70.7832ZM77.0711 75.2026C80.5461 75.2026 83.3591 72.3816 83.3591 68.9076H79.7591C79.7591 70.3987 78.5531 71.6026 77.0711 71.6026V75.2026Z" fill="#A2ECFB"/>
<path d="M69.4874 49.382C68.8457 50.1412 68.941 51.2769 69.7003 51.9186C70.4595 52.5603 71.5952 52.465 72.2369 51.7058L69.4874 49.382ZM62.5071 19.2411C61.5131 19.2281 60.6968 20.0236 60.6839 21.0176C60.6709 22.0116 61.4662 22.8278 62.4603 22.8408L62.5071 19.2411ZM52.9408 23.88C53.9128 23.6715 54.5316 22.7144 54.3231 21.7424C54.1145 20.7705 53.1574 20.1516 52.1855 20.3602L52.9408 23.88ZM3.5492 64.9047C3.6933 65.8883 4.6075 66.5687 5.5912 66.4246C6.5748 66.2805 7.2553 65.3663 7.1112 64.3827L3.5492 64.9047ZM72.2369 51.7058C75.8839 47.3907 78.5051 42.927 79.7521 38.678C81.0011 34.4213 80.9001 30.2471 78.8761 26.7364L75.7575 28.5344C77.1495 30.9491 77.3604 34.0418 76.2975 37.6643C75.2324 41.2944 72.9185 45.3223 69.4874 49.382L72.2369 51.7058ZM78.8761 26.7364C75.912 21.5937 69.7083 19.3349 62.5071 19.2411L62.4603 22.8408C69.1329 22.9277 73.7263 25.0106 75.7575 28.5344L78.8761 26.7364ZM52.1855 20.3602C45.4363 21.8085 38.0879 24.648 30.8827 28.8146L32.6848 31.931C39.5973 27.9338 46.5949 25.2418 52.9408 23.88L52.1855 20.3602ZM30.8827 28.8146C22.1367 33.872 14.967 40.0954 10.1492 46.3927C5.3775 52.63 2.7149 59.2115 3.5492 64.9047L7.1112 64.3827C6.484 60.1025 8.4748 54.5062 13.0085 48.5802C17.4961 42.7143 24.284 36.7889 32.6848 31.931L30.8827 28.8146Z" fill="#A2ECFB"/>
<path d="M27.0826 71.2294C26.7479 70.2933 25.7177 69.8058 24.7817 70.1405C23.8456 70.4752 23.3581 71.5054 23.6928 72.4415L27.0826 71.2294ZM56.5636 80.4255C57.0751 79.5731 56.7989 78.4674 55.9465 77.9558C55.0942 77.4442 53.9885 77.7204 53.4769 78.5728L56.5636 80.4255ZM57.5704 69.1794C57.2739 70.1283 57.8028 71.1378 58.7517 71.4343C59.7005 71.7307 60.7101 71.2018 61.0065 70.253L57.5704 69.1794ZM47.1561 6.53005C46.2478 6.12605 45.1839 6.53495 44.78 7.44325C44.376 8.35165 44.7849 9.41545 45.6932 9.81935L47.1561 6.53005ZM23.6928 72.4415C25.5995 77.774 28.1497 82.2904 31.2033 85.5049C34.2624 88.7239 37.928 90.7309 41.9836 90.7309V87.1309C39.1985 87.1309 36.4166 85.7649 33.8132 83.0248C31.2043 80.2789 28.8769 76.2476 27.0826 71.2294L23.6928 72.4415ZM41.9836 90.7309C47.8695 90.7309 52.8922 86.5419 56.5636 80.4255L53.4769 78.5728C50.0782 84.2349 46.0123 87.1309 41.9836 87.1309V90.7309ZM61.0065 70.253C63.027 63.7863 64.1833 56.183 64.1833 48.0672H60.5833C60.5833 55.8535 59.4724 63.0918 57.5704 69.1794L61.0065 70.253ZM64.1833 48.0672C64.1833 38.1143 62.444 28.9219 59.4962 21.6501C56.5749 14.4435 52.3437 8.83705 47.1561 6.53005L45.6932 9.81935C49.6365 11.573 53.3847 16.1564 56.1599 23.0026C58.9087 29.7836 60.5833 38.5069 60.5833 48.0672H64.1833Z" fill="#A2ECFB"/>
<path fill-rule="evenodd" clip-rule="evenodd" d="M81.559 68.9076C81.559 66.4251 79.55 64.4126 77.071 64.4126C74.5924 64.4126 72.5831 66.4251 72.5831 68.9076C72.5831 71.3901 74.5924 73.4026 77.071 73.4026C79.55 73.4026 81.559 71.3901 81.559 68.9076Z" stroke="#A2ECFB" stroke-width="3.6" stroke-linecap="round"/>
<path fill-rule="evenodd" clip-rule="evenodd" d="M6.81432 73.4026C9.29292 73.4026 11.3023 71.3901 11.3023 68.9076C11.3023 66.4251 9.29292 64.4126 6.81432 64.4126C4.33572 64.4126 2.32642 66.4251 2.32642 68.9076C2.32642 71.3901 4.33572 73.4026 6.81432 73.4026Z" stroke="#A2ECFB" stroke-width="3.6" stroke-linecap="round"/>
<path d="M41.9835 11.6985C44.4621 11.6985 46.4715 9.68602 46.4715 7.2035C46.4715 4.72098 44.4621 2.7085 41.9835 2.7085C39.5049 2.7085 37.4956 4.72098 37.4956 7.2035C37.4956 9.68602 39.5049 11.6985 41.9835 11.6985Z" stroke="#A2ECFB" stroke-width="3.6" stroke-linecap="round"/>
<path fill-rule="evenodd" clip-rule="evenodd" d="M42.8502 52.0857C40.6342 52.5652 38.4511 51.1547 37.9714 48.9353C37.4935 46.7159 38.9008 44.5293 41.1168 44.0489C43.3327 43.5693 45.5158 44.9798 45.9955 47.1992C46.4743 49.4186 45.0661 51.6052 42.8502 52.0857Z" fill="#A2ECFB"/>
</svg>
