<svg width="100" height="100" viewBox="0 0 100 100" fill="none" xmlns="http://www.w3.org/2000/svg">
<path d="M20.7411 59.15C20.3785 59.49 19.9365 59.7733 19.4151 60C18.9165 60.2267 18.3045 60.34 17.5791 60.34C16.6498 60.34 15.8678 60.136 15.2331 59.728C14.6211 59.32 14.2131 58.742 14.0091 57.994C13.2611 58.81 12.4338 59.4107 11.5271 59.796C10.6431 60.1587 9.73647 60.34 8.80714 60.34C7.24314 60.34 6.07581 59.9093 5.30514 59.048C4.53447 58.164 4.14914 57.0647 4.14914 55.75C4.14914 54.4127 4.63647 53.336 5.61114 52.52C6.58581 51.6813 8.30847 51.262 10.7791 51.262H13.8731V48.508C13.8731 46.6267 13.6238 45.346 13.1251 44.666C12.6491 43.9633 11.9805 43.612 11.1191 43.612C10.5525 43.612 10.0311 43.7593 9.55514 44.054C9.07914 44.326 8.73914 44.8473 8.53514 45.618C8.35381 46.366 8.38781 47.454 8.63714 48.882L4.89714 48.338C4.71581 47.2953 4.82914 46.332 5.23714 45.448C5.66781 44.5413 6.38181 43.816 7.37914 43.272C8.37647 42.7053 9.64581 42.422 11.1871 42.422C12.9325 42.422 14.2811 42.7053 15.2331 43.272C16.1851 43.8387 16.8425 44.5867 17.2051 45.516C17.5905 46.4453 17.7831 47.4427 17.7831 48.508V56.362C17.7831 57.518 17.8851 58.2433 18.0891 58.538C18.2931 58.8327 18.5198 58.98 18.7691 58.98C19.1771 58.98 19.6305 58.742 20.1291 58.266L20.7411 59.15ZM10.3031 58.538C10.8925 58.538 11.4705 58.3907 12.0371 58.096C12.6265 57.7787 13.2385 57.2007 13.8731 56.362V52.452H11.3231C10.2125 52.452 9.40781 52.7127 8.90914 53.234C8.41047 53.7553 8.16114 54.5713 8.16114 55.682C8.16114 56.5887 8.34247 57.2913 8.70514 57.79C9.06781 58.2887 9.60047 58.538 10.3031 58.538ZM26.2521 39.838C25.5494 39.838 24.9827 39.6227 24.5521 39.192C24.1214 38.7387 23.9061 38.1607 23.9061 37.458C23.9061 36.7553 24.1214 36.1887 24.5521 35.758C24.9827 35.3273 25.5494 35.112 26.2521 35.112C26.9321 35.112 27.4987 35.3273 27.9521 35.758C28.4054 36.1887 28.6321 36.7553 28.6321 37.458C28.6321 38.1607 28.4054 38.7387 27.9521 39.192C27.4987 39.6227 26.9321 39.838 26.2521 39.838ZM21.6961 43.714V42.762H28.2241V57.144C28.2241 57.9147 28.2581 58.3793 28.3261 58.538C28.3941 58.674 28.6094 58.7647 28.9721 58.81L30.8421 59.048V60H21.6961V59.048L23.5661 58.81C23.9287 58.7647 24.1441 58.674 24.2121 58.538C24.2801 58.3793 24.3141 57.9147 24.3141 57.144V45.618C24.3141 44.8473 24.2801 44.394 24.2121 44.258C24.1441 44.0993 23.9287 43.9973 23.5661 43.952L21.6961 43.714ZM32.155 43.714V42.762H38.479V45.55C39.8617 43.4647 41.505 42.422 43.409 42.422C44.1117 42.422 44.7917 42.6487 45.449 43.102C46.1064 43.5327 46.6504 44.3487 47.081 45.55L44.055 47.182C43.7377 46.2527 43.3637 45.6293 42.933 45.312C42.525 44.972 42.083 44.802 41.607 44.802C41.1084 44.802 40.621 44.9607 40.145 45.278C39.669 45.5953 39.1817 46.1847 38.683 47.046V57.144C38.683 57.9147 38.717 58.3793 38.785 58.538C38.853 58.674 39.0684 58.7647 39.431 58.81L41.981 59.048V60H32.155V59.048L34.025 58.81C34.3877 58.7647 34.603 58.674 34.671 58.538C34.739 58.3793 34.773 57.9147 34.773 57.144V45.618C34.773 44.8473 34.739 44.394 34.671 44.258C34.603 44.0993 34.3877 43.9973 34.025 43.952L32.155 43.714ZM47.8601 43.714V42.762H54.1841V45.55C55.5668 43.4647 57.2101 42.422 59.1141 42.422C59.8168 42.422 60.4968 42.6487 61.1541 43.102C61.8115 43.5327 62.3555 44.3487 62.7861 45.55L59.7601 47.182C59.4428 46.2527 59.0688 45.6293 58.6381 45.312C58.2301 44.972 57.7881 44.802 57.3121 44.802C56.8135 44.802 56.3261 44.9607 55.8501 45.278C55.3741 45.5953 54.8868 46.1847 54.3881 47.046V57.144C54.3881 57.9147 54.4221 58.3793 54.4901 58.538C54.5581 58.674 54.7735 58.7647 55.1361 58.81L57.6861 59.048V60H47.8601V59.048L49.7301 58.81C50.0928 58.7647 50.3081 58.674 50.3761 58.538C50.4441 58.3793 50.4781 57.9147 50.4781 57.144V45.618C50.4781 44.8473 50.4441 44.394 50.3761 44.258C50.3081 44.0993 50.0928 43.9973 49.7301 43.952L47.8601 43.714ZM78.4012 55.954C77.9932 57.5407 77.2338 58.674 76.1232 59.354C75.0125 60.0113 73.7205 60.34 72.2472 60.34C69.5272 60.34 67.4872 59.558 66.1272 57.994C64.7672 56.4073 64.0872 54.3107 64.0872 51.704V51.024C64.0872 48.4173 64.7218 46.332 65.9912 44.768C67.2832 43.204 69.1418 42.422 71.5672 42.422C72.9272 42.422 74.1285 42.694 75.1712 43.238C76.2365 43.7593 77.0638 44.5187 77.6532 45.516C78.2652 46.5133 78.5712 47.726 78.5712 49.154C78.5712 49.494 78.5485 49.8567 78.5032 50.242C78.4805 50.6273 78.4238 51.0127 78.3332 51.398H68.2692V52.384C68.2692 54.7867 68.6092 56.5207 69.2892 57.586C69.9692 58.6287 71.0685 59.15 72.5872 59.15C73.5618 59.15 74.3892 58.8667 75.0692 58.3C75.7492 57.7107 76.1345 56.7247 76.2252 55.342L78.4012 55.954ZM71.5672 43.612C70.4565 43.612 69.6292 44.122 69.0852 45.142C68.5412 46.162 68.2692 47.8507 68.2692 50.208H74.4232C74.5138 49.7547 74.5705 49.3353 74.5932 48.95C74.6385 48.542 74.6612 48.168 74.6612 47.828C74.6612 46.3773 74.3778 45.312 73.8112 44.632C73.2445 43.952 72.4965 43.612 71.5672 43.612ZM89.4953 43.612C88.4073 43.612 87.5913 44.1333 87.0473 45.176C86.5259 46.196 86.2653 47.9187 86.2653 50.344V52.384C86.2653 54.7867 86.5713 56.5207 87.1833 57.586C87.7953 58.6287 88.7926 59.15 90.1753 59.15C91.1953 59.15 92.0226 58.8667 92.6573 58.3C93.3146 57.7107 93.6886 56.7247 93.7793 55.342L95.9553 55.954C95.5473 57.5407 94.7993 58.674 93.7113 59.354C92.6459 60.0113 91.3879 60.34 89.9373 60.34C87.3306 60.34 85.3699 59.558 84.0553 57.994C82.7406 56.4073 82.0833 54.3107 82.0833 51.704V51.024C82.0833 48.4173 82.7179 46.332 83.9873 44.768C85.2566 43.204 87.0926 42.422 89.4953 42.422C91.0819 42.422 92.3739 42.7393 93.3713 43.374C94.3913 43.986 95.1053 44.802 95.5133 45.822C95.9439 46.8193 96.0573 47.896 95.8533 49.052L92.1133 49.596C92.3626 47.692 92.2606 46.2187 91.8073 45.176C91.3539 44.1333 90.5833 43.612 89.4953 43.612Z" fill="white"/>
</svg>
