<svg width="192" height="63" viewBox="0 0 192 63" fill="none" xmlns="http://www.w3.org/2000/svg">
<path d="M0 24.7668V24.3916L0.678765 24.1289C1.18155 23.9287 1.52094 23.6786 1.69691 23.3784C1.89803 23.0782 1.99859 22.6779 1.99859 22.1776V2.58926C1.99859 2.0639 1.89803 1.65112 1.69691 1.35092C1.52094 1.05071 1.18155 0.813052 0.678765 0.637934L0 0.375254V0H10.8225C13.8895 0 16.1018 0.562882 17.4593 1.68865C18.8169 2.78939 19.4956 4.19034 19.4956 5.8915C19.4956 7.16737 18.9928 8.33066 17.9873 9.38137C17.0068 10.4071 15.3099 11.1326 12.8965 11.5578C15.6619 11.8581 17.6856 12.5835 18.9677 13.7343C20.2498 14.8601 20.8909 16.236 20.8909 17.8621C20.8909 18.6627 20.7149 19.4757 20.3629 20.3013C20.011 21.1018 19.4076 21.8398 18.5529 22.5153C17.7233 23.1907 16.5795 23.7411 15.1214 24.1664C13.6633 24.5667 11.8155 24.7668 9.57813 24.7668H0ZM7.57954 11.5203H9.20103C10.8854 11.5203 12.0921 11.1326 12.8211 10.357C13.5753 9.5815 13.9524 8.23059 13.9524 6.30428C13.9524 4.30292 13.613 2.87695 12.9342 2.02638C12.2555 1.1758 11.1493 0.750509 9.61584 0.750509H7.57954V11.5203ZM7.57954 24.0163H9.465C11.3505 24.0163 12.7457 23.516 13.6507 22.5153C14.5809 21.5146 15.046 19.951 15.046 17.8246C15.046 15.8232 14.606 14.3973 13.7261 13.5467C12.8463 12.6961 11.4007 12.2708 9.38958 12.2708H7.57954V24.0163Z" fill="url(#paint0_linear_1_111)"/>
<path d="M22.2882 24.7668V24.3916L23.0424 24.0914C23.5451 23.9162 23.872 23.6786 24.0228 23.3784C24.1988 23.0782 24.2868 22.6779 24.2868 22.1776V2.58926C24.2868 2.08892 24.2113 1.68865 24.0605 1.38844C23.9097 1.08824 23.5703 0.850577 23.0424 0.675459L22.2882 0.375254V0H31.9794V0.375254L31.2252 0.675459C30.7225 0.850577 30.3831 1.08824 30.2071 1.38844C30.0563 1.68865 29.9808 2.08892 29.9808 2.58926V22.1776C29.9808 22.6779 30.0563 23.0782 30.2071 23.3784C30.3831 23.6536 30.7225 23.8912 31.2252 24.0914L31.9794 24.3916V24.7668H22.2882Z" fill="url(#paint1_linear_1_111)"/>
<path d="M39.0605 24.7668V24.3916L40.6066 24.0163C41.6373 23.7912 42.1527 23.1657 42.1527 22.14V0.750509H38.9474C38.0172 0.750509 37.351 1.00068 36.9488 1.50102C36.5466 1.97634 36.1192 2.63929 35.6667 3.48987L34.3091 6.11665H33.9321L34.1206 0H55.8788L56.0296 6.11665H55.6525L54.295 3.48987C53.8676 2.63929 53.4528 1.97634 53.0506 1.50102C52.6484 1.00068 51.9822 0.750509 51.052 0.750509H47.8467V22.14C47.8467 23.1657 48.3621 23.7912 49.3928 24.0163L50.9389 24.3916V24.7668H39.0605Z" fill="url(#paint2_linear_1_111)"/>
<path d="M63.2268 24.7668V24.3916L64.7729 24.0163C65.8036 23.7912 66.3189 23.1657 66.3189 22.14V0.750509H63.1136C62.1835 0.750509 61.5173 1.00068 61.1151 1.50102C60.7128 1.97634 60.2855 2.63929 59.8329 3.48987L58.4754 6.11665H58.0983L58.2869 0H80.0451L80.1959 6.11665H79.8188L78.4613 3.48987C78.0339 2.63929 77.6191 1.97634 77.2169 1.50102C76.8146 1.00068 76.1484 0.750509 75.2183 0.750509H72.013V22.14C72.013 23.1657 72.5284 23.7912 73.5591 24.0163L75.1052 24.3916V24.7668H63.2268Z" fill="url(#paint3_linear_1_111)"/>
<path d="M82.1927 24.7668V24.3916L83.06 24.0538C83.4874 23.8787 83.7765 23.6536 83.9273 23.3784C84.1033 23.0782 84.1913 22.6779 84.1913 22.1776V2.58926C84.1913 2.08892 84.1159 1.70116 83.965 1.42597C83.8393 1.12576 83.5377 0.888103 83.06 0.712984L82.1927 0.375254V0H100.255L100.482 5.77892H100.105L98.4831 2.25153C98.2568 1.80122 98.018 1.43848 97.7666 1.16329C97.5152 0.888103 97.1381 0.750509 96.6353 0.750509H89.8477V11.5954H93.8825C94.3853 11.5954 94.7624 11.4703 95.0138 11.2201C95.2904 10.9449 95.5292 10.5822 95.7303 10.1319L96.4845 8.63086H96.8616V15.3854H96.4845L95.7303 13.8094C95.504 13.3591 95.2652 13.0088 95.0138 12.7587C94.7624 12.4835 94.3853 12.3459 93.8825 12.3459H89.8477V24.0163H97.4649C97.9677 24.0163 98.3574 23.8912 98.6339 23.6411C98.9104 23.3659 99.1367 22.9906 99.3127 22.5153L100.859 18.9879H101.236L101.01 24.7668H82.1927Z" fill="url(#paint4_linear_1_111)"/>
<path d="M103.487 24.7668V24.3916L104.278 24.1289C104.781 23.9538 105.108 23.7286 105.259 23.4534C105.41 23.1532 105.485 22.7404 105.485 22.2151V2.58926C105.485 2.08892 105.41 1.70116 105.259 1.42597C105.133 1.12576 104.832 0.888103 104.354 0.712984L103.487 0.375254V0H114.271C117.238 0 119.513 0.562882 121.097 1.68865C122.681 2.78939 123.472 4.32794 123.472 6.30428C123.472 7.40503 123.058 8.50577 122.228 9.60652C121.398 10.7073 120.091 11.5578 118.306 12.1583L123.548 22.5153C123.774 22.9406 124.026 23.2908 124.302 23.566C124.604 23.8162 124.993 24.0413 125.471 24.2415L125.961 24.4291V24.7668H119.211L113.63 12.9463H111.066V22.2151C111.066 22.6904 111.142 23.0782 111.292 23.3784C111.443 23.6786 111.757 23.9037 112.235 24.0538L113.14 24.3916V24.7668H103.487ZM111.066 12.1958H112.876C114.686 12.1958 115.993 11.7205 116.798 10.7698C117.602 9.79415 118.005 8.35567 118.005 6.45438C118.005 4.52807 117.628 3.10211 116.873 2.17648C116.119 1.22583 114.85 0.750509 113.065 0.750509H111.066V12.1958Z" fill="url(#paint5_linear_1_111)"/>
<path d="M0.490219 62.2923V61.917L1.73462 61.5418C2.18713 61.4167 2.51394 61.179 2.71506 60.8288C2.91617 60.4535 3.01673 60.0157 3.01673 59.5154V41.4656C2.7402 40.8652 2.51394 40.4149 2.33797 40.1147C2.18713 39.8145 2.01116 39.5644 1.81004 39.3642C1.60892 39.1391 1.33239 38.8639 0.980438 38.5387L0.339382 37.9007V37.5255H7.0139L19.5333 54.5245V40.3774C19.5333 39.8771 19.4454 39.4268 19.2694 39.0265C19.1185 38.6262 18.7917 38.3635 18.2889 38.2385L17.0445 37.9007V37.5255H22.437V37.9007L21.4188 38.2385C20.9663 38.3886 20.6898 38.6512 20.5892 39.0265C20.4886 39.4017 20.4384 39.8395 20.4384 40.3399V62.4049H18.3267L3.92175 42.704V59.5154C3.92175 60.0157 3.99717 60.441 4.14801 60.7913C4.29884 61.1415 4.61309 61.3917 5.09074 61.5418L6.22201 61.917V62.2923H0.490219Z" fill="url(#paint6_linear_1_111)"/>
<path d="M24.645 62.2923V61.917L25.3992 61.6168C25.902 61.4417 26.2288 61.204 26.3796 60.9038C26.5556 60.6036 26.6436 60.2034 26.6436 59.703V40.1147C26.6436 39.6144 26.5682 39.2141 26.4173 38.9139C26.2665 38.6137 25.9271 38.376 25.3992 38.2009L24.645 37.9007V37.5255H34.3363V37.9007L33.5821 38.2009C33.0793 38.376 32.7399 38.6137 32.5639 38.9139C32.4131 39.2141 32.3377 39.6144 32.3377 40.1147V59.703C32.3377 60.2034 32.4131 60.6036 32.5639 60.9038C32.7399 61.179 33.0793 61.4167 33.5821 61.6168L34.3363 61.917V62.2923H24.645Z" fill="url(#paint7_linear_1_111)"/>
<path d="M48.6348 62.9677C46.0706 62.9677 43.808 62.4424 41.8471 61.3917C39.9114 60.3159 38.3905 58.8024 37.2843 56.8511C36.2033 54.8748 35.6628 52.5482 35.6628 49.8714C35.6628 47.2696 36.2033 44.993 37.2843 43.0417C38.3653 41.0904 39.924 39.5769 41.9603 38.5011C44.0217 37.4004 46.5105 36.85 49.4267 36.85C50.7591 36.85 51.9909 37.0001 53.1222 37.3003C54.2786 37.6005 55.3722 38.0383 56.4029 38.6137L56.5537 43.8673H56.1766L54.0649 39.9646C53.7381 39.3392 53.4364 38.8889 53.1599 38.6137C52.8834 38.3385 52.5314 38.1259 52.104 37.9758C51.7018 37.8507 51.3247 37.7631 50.9728 37.7131C50.646 37.6381 50.206 37.6005 49.6529 37.6005C48.0943 37.6005 46.7116 38.0133 45.5049 38.8389C44.3234 39.6644 43.4058 40.9778 42.7522 42.779C42.0985 44.5803 41.7717 46.9444 41.7717 49.8714C41.7717 52.7733 42.0734 55.1374 42.6768 56.9637C43.3052 58.7899 44.1851 60.1283 45.3164 60.9789C46.4477 61.8045 47.7549 62.2172 49.2381 62.2172C49.4644 62.2172 49.6781 62.2047 49.8792 62.1797C50.1055 62.1297 50.3191 62.0796 50.5203 62.0296C50.9979 61.9546 51.3121 61.7544 51.463 61.4292C51.6138 61.104 51.6892 60.7162 51.6892 60.2659V52.8359C51.6892 51.8602 51.1865 51.2598 50.1809 51.0346L48.4463 50.5843V50.2091H59.0802V50.5843L58.5523 50.7344C57.597 51.0346 57.1194 51.6601 57.1194 52.6107V60.7537C55.8121 61.4792 54.4797 62.0296 53.1222 62.4049C51.7898 62.7801 50.294 62.9677 48.6348 62.9677Z" fill="url(#paint8_linear_1_111)"/>
<path d="M60.4937 62.2923V61.917L61.2479 61.6168C61.7507 61.4417 62.0775 61.204 62.2284 60.9038C62.4043 60.6036 62.4923 60.2159 62.4923 59.7406V40.1147C62.4923 39.6144 62.4043 39.2141 62.2284 38.9139C62.0775 38.6137 61.7507 38.376 61.2479 38.2009L60.4937 37.9007V37.5255H70.0719V37.9007L69.4308 38.1634C68.9532 38.3385 68.6264 38.5762 68.4504 38.8764C68.2744 39.1516 68.1864 39.5393 68.1864 40.0397V49.1584H77.1989V40.0397C77.1989 39.5393 77.1109 39.1516 76.9349 38.8764C76.7841 38.5762 76.4573 38.3385 75.9545 38.1634L75.2757 37.9007V37.5255H84.8916V37.9007L84.1374 38.2009C83.6597 38.376 83.3329 38.6137 83.1569 38.9139C82.981 39.2141 82.893 39.6144 82.893 40.1147V59.7406C82.893 60.2159 82.981 60.6036 83.1569 60.9038C83.3329 61.204 83.6597 61.4417 84.1374 61.6168L84.8916 61.917V62.2923H75.2757V61.917L75.9545 61.6919C76.4573 61.4917 76.7841 61.2541 76.9349 60.9789C77.1109 60.6787 77.1989 60.2784 77.1989 59.7781V49.9089H68.1864V59.7781C68.1864 60.7037 68.6012 61.3416 69.4308 61.6919L70.0719 61.917V62.2923H60.4937Z" fill="url(#paint9_linear_1_111)"/>
<path d="M91.9962 62.2923V61.917L93.5423 61.5418C94.573 61.3166 95.0884 60.6912 95.0884 59.6655V38.276H91.8831C90.9529 38.276 90.2867 38.5262 89.8845 39.0265C89.4823 39.5018 89.0549 40.1648 88.6024 41.0153L87.2449 43.6421H86.8678L87.0563 37.5255H108.814L108.965 43.6421H108.588L107.231 41.0153C106.803 40.1648 106.389 39.5018 105.986 39.0265C105.584 38.5262 104.918 38.276 103.988 38.276H100.782V59.6655C100.782 60.6912 101.298 61.3166 102.329 61.5418L103.875 61.917V62.2923H91.9962Z" fill="url(#paint10_linear_1_111)"/>
<path d="M110.962 62.2923V61.917L111.641 61.6919C112.144 61.5168 112.483 61.2791 112.659 60.9789C112.835 60.6787 112.923 60.2784 112.923 59.7781C112.948 58.2771 112.961 56.7635 112.961 55.2375C112.961 53.7115 112.961 52.1854 112.961 50.6594V49.1584C112.961 47.6574 112.961 46.1563 112.961 44.6553C112.961 43.1293 112.948 41.6158 112.923 40.1147C112.923 39.6144 112.848 39.2141 112.697 38.9139C112.571 38.6137 112.269 38.376 111.792 38.2009L110.962 37.9007V37.5255H129.213L129.477 43.7547H129.1L126.951 39.8145C126.699 39.3392 126.41 38.964 126.084 38.6888C125.757 38.4136 125.304 38.276 124.726 38.276H118.655C118.63 40.0522 118.617 41.8659 118.617 43.7172C118.617 45.5684 118.617 47.4072 118.617 49.2334H122.539C123.117 49.2334 123.544 49.1083 123.821 48.8582C124.097 48.608 124.361 48.2453 124.613 47.7699L125.405 46.344H125.782V52.9109H125.405L124.575 51.485C124.324 51.0346 124.06 50.6719 123.783 50.3967C123.532 50.1215 123.117 49.9839 122.539 49.9839H118.617C118.617 51.7351 118.617 53.4113 118.617 55.0123C118.617 56.5884 118.63 58.1395 118.655 59.6655C118.655 60.6412 119.132 61.2791 120.088 61.5793L121.219 61.917V62.2923H110.962Z" fill="url(#paint11_linear_1_111)"/>
<path d="M127.64 62.2923V61.917L128.583 61.5793C129.086 61.3792 129.476 61.1415 129.752 60.8663C130.029 60.5661 130.255 60.1533 130.431 59.628L138.199 37.4504H141.404L149.059 59.7781C149.26 60.3285 149.487 60.7537 149.738 61.0539C149.989 61.3291 150.379 61.5668 150.907 61.7669L151.36 61.917V62.2923H141.781V61.917L142.347 61.7294C142.875 61.5293 143.189 61.2541 143.29 60.9038C143.415 60.5286 143.403 60.0908 143.252 59.5905L141.48 54.1868H133.108L131.298 59.4779C131.122 60.0283 131.059 60.466 131.11 60.7913C131.185 61.1165 131.487 61.3792 132.015 61.5793L132.844 61.917V62.2923H127.64ZM133.372 53.4363H141.254L137.445 41.7659L133.372 53.4363Z" fill="url(#paint12_linear_1_111)"/>
<path d="M152.924 62.2923V61.917L153.716 61.6168C154.244 61.4167 154.571 61.179 154.696 60.9038C154.847 60.6036 154.922 60.2034 154.922 59.703V40.1147C154.922 39.6144 154.847 39.2141 154.696 38.9139C154.545 38.6137 154.219 38.376 153.716 38.2009L152.924 37.9007V37.5255H162.54V37.9007L161.861 38.2009C161.383 38.376 161.057 38.6262 160.881 38.9514C160.705 39.2516 160.617 39.6519 160.617 40.1523V61.5418H166.424C167.354 61.5418 168.033 61.3166 168.46 60.8663C168.913 60.416 169.34 59.7656 169.742 58.915L171.213 55.7629H171.59L171.251 62.2923H152.924Z" fill="url(#paint13_linear_1_111)"/>
<path d="M173.334 62.2923V61.917L174.126 61.6168C174.654 61.4167 174.981 61.179 175.106 60.9038C175.257 60.6036 175.333 60.2034 175.333 59.703V40.1147C175.333 39.6144 175.257 39.2141 175.106 38.9139C174.955 38.6137 174.629 38.376 174.126 38.2009L173.334 37.9007V37.5255H182.95V37.9007L182.271 38.2009C181.793 38.376 181.467 38.6262 181.291 38.9514C181.115 39.2516 181.027 39.6519 181.027 40.1523V61.5418H186.834C187.764 61.5418 188.443 61.3166 188.87 60.8663C189.323 60.416 189.75 59.7656 190.152 58.915L191.623 55.7629H192L191.661 62.2923H173.334Z" fill="url(#paint14_linear_1_111)"/>
<defs>
<linearGradient id="paint0_linear_1_111" x1="96.5856" y1="-6.50447" x2="96.5856" y2="68.5465" gradientUnits="userSpaceOnUse">
<stop stop-color="white"/>
<stop offset="1" stop-color="white" stop-opacity="0"/>
</linearGradient>
<linearGradient id="paint1_linear_1_111" x1="96.5856" y1="-6.50447" x2="96.5856" y2="68.5465" gradientUnits="userSpaceOnUse">
<stop stop-color="white"/>
<stop offset="1" stop-color="white" stop-opacity="0"/>
</linearGradient>
<linearGradient id="paint2_linear_1_111" x1="96.5856" y1="-6.50447" x2="96.5856" y2="68.5465" gradientUnits="userSpaceOnUse">
<stop stop-color="white"/>
<stop offset="1" stop-color="white" stop-opacity="0"/>
</linearGradient>
<linearGradient id="paint3_linear_1_111" x1="96.5856" y1="-6.50447" x2="96.5856" y2="68.5465" gradientUnits="userSpaceOnUse">
<stop stop-color="white"/>
<stop offset="1" stop-color="white" stop-opacity="0"/>
</linearGradient>
<linearGradient id="paint4_linear_1_111" x1="96.5856" y1="-6.50447" x2="96.5856" y2="68.5465" gradientUnits="userSpaceOnUse">
<stop stop-color="white"/>
<stop offset="1" stop-color="white" stop-opacity="0"/>
</linearGradient>
<linearGradient id="paint5_linear_1_111" x1="96.5856" y1="-6.50447" x2="96.5856" y2="68.5465" gradientUnits="userSpaceOnUse">
<stop stop-color="white"/>
<stop offset="1" stop-color="white" stop-opacity="0"/>
</linearGradient>
<linearGradient id="paint6_linear_1_111" x1="96.5856" y1="-6.50447" x2="96.5856" y2="68.5465" gradientUnits="userSpaceOnUse">
<stop stop-color="white"/>
<stop offset="1" stop-color="white" stop-opacity="0"/>
</linearGradient>
<linearGradient id="paint7_linear_1_111" x1="96.5856" y1="-6.50447" x2="96.5856" y2="68.5465" gradientUnits="userSpaceOnUse">
<stop stop-color="white"/>
<stop offset="1" stop-color="white" stop-opacity="0"/>
</linearGradient>
<linearGradient id="paint8_linear_1_111" x1="96.5856" y1="-6.50447" x2="96.5856" y2="68.5465" gradientUnits="userSpaceOnUse">
<stop stop-color="white"/>
<stop offset="1" stop-color="white" stop-opacity="0"/>
</linearGradient>
<linearGradient id="paint9_linear_1_111" x1="96.5856" y1="-6.50447" x2="96.5856" y2="68.5465" gradientUnits="userSpaceOnUse">
<stop stop-color="white"/>
<stop offset="1" stop-color="white" stop-opacity="0"/>
</linearGradient>
<linearGradient id="paint10_linear_1_111" x1="96.5856" y1="-6.50447" x2="96.5856" y2="68.5465" gradientUnits="userSpaceOnUse">
<stop stop-color="white"/>
<stop offset="1" stop-color="white" stop-opacity="0"/>
</linearGradient>
<linearGradient id="paint11_linear_1_111" x1="96.5856" y1="-6.50447" x2="96.5856" y2="68.5465" gradientUnits="userSpaceOnUse">
<stop stop-color="white"/>
<stop offset="1" stop-color="white" stop-opacity="0"/>
</linearGradient>
<linearGradient id="paint12_linear_1_111" x1="96.5856" y1="-6.50447" x2="96.5856" y2="68.5465" gradientUnits="userSpaceOnUse">
<stop stop-color="white"/>
<stop offset="1" stop-color="white" stop-opacity="0"/>
</linearGradient>
<linearGradient id="paint13_linear_1_111" x1="96.5856" y1="-6.50447" x2="96.5856" y2="68.5465" gradientUnits="userSpaceOnUse">
<stop stop-color="white"/>
<stop offset="1" stop-color="white" stop-opacity="0"/>
</linearGradient>
<linearGradient id="paint14_linear_1_111" x1="96.5856" y1="-6.50447" x2="96.5856" y2="68.5465" gradientUnits="userSpaceOnUse">
<stop stop-color="white"/>
<stop offset="1" stop-color="white" stop-opacity="0"/>
</linearGradient>
</defs>
</svg>
