<svg width="24" height="21" viewBox="0 0 24 21" fill="none" xmlns="http://www.w3.org/2000/svg">
<path d="M0.222656 10.0215C0.222656 13.3086 2.48145 15.4971 5.85645 15.4971C6.36621 15.4971 6.84961 15.4531 7.30664 15.3652C8.29102 16.2178 9.75 16.7715 11.4111 16.7715C12.0527 16.7715 12.7295 16.6836 13.415 16.5166C14.0654 17.2109 15 17.5801 16.2012 17.5977C16.377 17.5977 16.5791 17.5889 16.7725 17.5801C17.0098 19.1182 18.0029 20.5332 19.5322 20.5332C21.7559 20.5332 22.9248 17.9316 22.9248 15.1719C22.9248 14.2754 22.8896 13.6074 22.8369 13.0098C23.4346 12.2539 23.7686 11.252 23.7686 10.0654C23.7686 7.78906 22.2305 6.02246 19.8838 5.54785C19.4092 3.4209 17.7832 2.12012 16 2C15.5609 1.97042 15.1904 2.06738 14.9619 2.11133C14.2324 1.25 13.0811 0.731445 11.8506 0.731445C10.4795 0.731445 9.30176 1.24121 8.50195 2.12012C7.86035 1.83887 7.19238 1.70703 6.54199 1.70703C4.34473 1.70703 2.5957 3.20996 2.5957 5.35449C2.5957 5.38965 2.5957 5.43359 2.5957 5.46875C1.11035 6.48828 0.222656 8.19336 0.222656 10.0215ZM7.3418 5.08203C7.32422 5.60938 7.68457 5.96094 8.15039 5.96094C8.59863 5.96094 8.93262 5.66211 8.9502 5.15234C9.02051 3.52637 10.1895 2.34863 11.8418 2.34863C12.835 2.34863 13.7051 2.87598 14.0566 3.64941C14.1445 3.81641 14.2764 3.83398 14.4873 3.78125C14.7686 3.71094 15.085 3.66699 15.3926 3.66699C16.9395 3.68457 18.3721 4.85352 18.3721 6.67285C18.3721 10.751 12.5977 10.2764 12.5977 14.3633C12.5977 14.5918 12.6152 14.8203 12.6592 15.0312C12.3076 15.1016 11.9473 15.1367 11.5957 15.1367C10.7607 15.1367 9.92578 14.9434 9.2666 14.6006C10.6201 13.748 11.4111 12.3418 11.4111 10.5752C11.4111 10.4258 11.4111 10.2852 11.3936 10.1445C13.3271 9.59961 14.25 8.2373 14.2324 6.25977C14.2236 5.81152 13.8457 5.44238 13.4062 5.44238C12.958 5.44238 12.5889 5.81152 12.5977 6.25977C12.6152 7.49902 12.1494 8.26367 10.9541 8.58887C10.7607 8.24609 10.5322 7.95605 10.251 7.71875C9.89941 7.42871 9.67969 7.32324 9.3457 7.32324C8.87988 7.32324 8.56348 7.61328 8.56348 8.03516C8.56348 8.50977 8.79199 8.61523 9.2666 9.05469C9.61816 9.38867 9.81152 9.90723 9.81152 10.5488C9.81152 12.5439 8.24707 13.8799 5.88281 13.8799C3.45703 13.8799 1.84863 12.333 1.84863 10.0127C1.84863 8.93164 2.29688 7.91211 3.05273 7.18262C3.6416 8.20215 4.75781 8.83496 6.22559 8.83496C6.67383 8.83496 7.04297 8.46582 7.04297 8.02637C7.04297 7.57812 6.67383 7.20898 6.22559 7.20898C4.98633 7.20898 4.22168 6.43555 4.22168 5.35449C4.22168 4.16797 5.20605 3.33301 6.5332 3.33301C6.89355 3.33301 7.27148 3.39453 7.64062 3.53516C7.46484 4.00977 7.35938 4.52832 7.3418 5.08203ZM17.7832 13.8184C17.7832 14.2666 18.1348 14.6006 18.5918 14.6357C19.6113 14.6973 20.5166 14.5479 21.2725 14.2139C21.29 14.5039 21.3076 14.8115 21.3076 15.1455C21.3076 17.3164 20.5078 18.8984 19.5322 18.8984C18.5215 18.8984 18.082 17.5449 18.082 16.3848C18.082 16.2441 17.9941 16.1475 17.8271 16.1475C17.6074 16.1562 17.3262 16.1562 17.0625 16.1562C15.3574 16.1562 14.2676 15.6025 14.2676 14.3105C14.2676 11.3398 19.6113 11.7969 19.9893 7.2002C21.3076 7.49023 22.1426 8.5625 22.1426 10.0654C22.1426 12.0078 20.7363 13.1855 18.6094 13.0098C18.1523 12.9746 17.7832 13.3701 17.7832 13.8184Z" fill="url(#paint0_linear_35_15)"/>
<defs>
<linearGradient id="paint0_linear_35_15" x1="-2.49418" y1="-1.93418" x2="24.6233" y2="27.1316" gradientUnits="userSpaceOnUse">
<stop offset="0.156743" stop-color="#FF715E"/>
<stop offset="0.826878" stop-color="#FE821A"/>
</linearGradient>
</defs>
</svg>
