<svg width="83" height="35" viewBox="0 0 83 35" fill="none" xmlns="http://www.w3.org/2000/svg">
<path d="M0 35L5.65934 0.494223H14.6126L13.6399 6.58216H14.0157C15.0474 4.56033 16.4843 2.96534 18.3265 1.79717C20.1835 0.629012 22.2689 0.0449308 24.5828 0.0449308C26.8819 0.0449308 28.7536 0.6365 30.1979 1.81964C31.6569 2.9878 32.497 4.57531 32.7181 6.58216H33.0718C34.074 4.60526 35.5846 3.02525 37.6037 1.8421C39.6228 0.643989 41.8777 0.0449308 44.3684 0.0449308C47.5075 0.0449308 49.9098 1.07082 51.5752 3.12259C53.2406 5.17437 53.7638 8.06483 53.1448 11.794L49.3424 35H39.9249L43.462 13.681C43.742 11.749 43.462 10.3113 42.6219 9.36778C41.7819 8.40929 40.6102 7.93004 39.1069 7.93004C37.3973 7.93004 35.9751 8.48417 34.8403 9.59243C33.7055 10.6857 33.0055 12.1309 32.7402 13.9281L29.2252 35H20.0951L23.6764 13.4788C23.9269 11.7715 23.6543 10.4236 22.8584 9.43517C22.0773 8.43175 20.9057 7.93004 19.3435 7.93004C18.3118 7.93004 17.3317 8.19962 16.4032 8.73877C15.4895 9.26294 14.7158 10.0043 14.082 10.9628C13.4483 11.9063 13.0356 13.0145 12.8441 14.2875L9.39539 35H0Z" fill="white"/>
<path d="M56.715 35L62.3744 0.494223H71.5045L70.5097 6.51476H70.8634C71.8361 4.37313 73.1404 2.75567 74.7763 1.66239C76.4269 0.55413 78.2028 0 80.104 0C80.5756 0 81.0693 0.0299526 81.5852 0.0898578C82.1157 0.134789 82.5873 0.209671 83 0.314504L81.5852 8.82863C81.1725 8.67886 80.583 8.55905 79.8166 8.46919C79.065 8.36436 78.3502 8.31194 77.6723 8.31194C76.3016 8.31194 75.0268 8.61896 73.8478 9.23299C72.6688 9.83205 71.6739 10.6707 70.8634 11.749C70.0675 12.8273 69.5443 14.0704 69.2938 15.4782L66.1325 35H56.715Z" fill="white"/>
</svg>
