<svg width="192" height="168" viewBox="0 0 192 168" fill="none" xmlns="http://www.w3.org/2000/svg">
<path d="M1.78125 80.172C1.78125 106.469 19.8516 123.977 46.8516 123.977C50.9297 123.977 54.7969 123.625 58.4531 122.922C66.3282 129.742 78 134.172 91.2888 134.172C96.4216 134.172 101.836 133.469 107.32 132.133C112.523 137.687 120 140.641 129.61 140.782C131.016 140.782 132.633 140.711 134.18 140.641C136.078 152.946 144.023 164.266 156.258 164.266C174.047 164.266 183.398 143.453 183.398 121.375C183.398 114.203 183.117 108.859 182.695 104.078C187.477 98.0312 190.149 90.016 190.149 80.5232C190.149 62.3125 177.844 48.1797 159.07 44.3828C155.274 27.3672 142.266 16.961 128 16C124.487 15.7634 121.523 16.539 119.695 16.8906C113.859 10 104.649 5.85156 94.8048 5.85156C83.836 5.85156 74.4141 9.92968 68.0156 16.961C62.8828 14.711 57.539 13.6562 52.3359 13.6562C34.7578 13.6562 20.7656 25.6797 20.7656 42.8359C20.7656 43.1172 20.7656 43.4687 20.7656 43.75C8.8828 51.9062 1.78125 65.5469 1.78125 80.172ZM58.7344 40.6562C58.5938 44.875 61.4766 47.6875 65.2031 47.6875C68.789 47.6875 71.461 45.2969 71.6016 41.2187C72.1641 28.211 81.516 18.789 94.7344 18.789C102.68 18.789 109.641 23.0078 112.453 29.1953C113.156 30.5313 114.211 30.6718 115.898 30.25C118.149 29.6875 120.68 29.3359 123.141 29.3359C135.516 29.4766 146.977 38.8282 146.977 53.3828C146.977 86.008 100.782 82.2112 100.782 114.906C100.782 116.734 100.922 118.562 101.274 120.25C98.4608 120.813 95.5784 121.094 92.7656 121.094C86.0856 121.094 79.4062 119.547 74.1328 116.805C84.9608 109.984 91.2888 98.7344 91.2888 84.6016C91.2888 83.4064 91.2888 82.2816 91.1488 81.156C106.617 76.7969 114 65.8984 113.859 50.0782C113.789 46.4922 110.766 43.539 107.25 43.539C103.664 43.539 100.711 46.4922 100.782 50.0782C100.922 59.9922 97.1952 66.1094 87.6328 68.711C86.0856 65.9687 84.2576 63.6484 82.008 61.75C79.1953 59.4297 77.4375 58.5859 74.7656 58.5859C71.039 58.5859 68.5078 60.9062 68.5078 64.2813C68.5078 68.0782 70.3359 68.9218 74.1328 72.4375C76.9453 75.1094 78.4922 79.2578 78.4922 84.3904C78.4922 100.351 65.9766 111.039 47.0625 111.039C27.6562 111.039 14.789 98.664 14.789 80.1016C14.789 71.4531 18.375 63.2969 24.4218 57.461C29.1328 65.6172 38.0625 70.6797 49.8047 70.6797C53.3906 70.6797 56.3438 67.7266 56.3438 64.211C56.3438 60.625 53.3906 57.6718 49.8047 57.6718C39.8906 57.6718 33.7734 51.4844 33.7734 42.8359C33.7734 33.3438 41.6484 26.6641 52.2656 26.6641C55.1484 26.6641 58.1718 27.1562 61.125 28.2813C59.7187 32.0782 58.875 36.2266 58.7344 40.6562ZM142.266 110.547C142.266 114.133 145.078 116.805 148.734 117.086C156.89 117.578 164.133 116.383 170.18 113.711C170.32 116.031 170.461 118.492 170.461 121.164C170.461 138.531 164.062 151.187 156.258 151.187C148.172 151.187 144.656 140.359 144.656 131.078C144.656 129.953 143.953 129.18 142.617 129.18C140.859 129.25 138.61 129.25 136.5 129.25C122.859 129.25 114.141 124.82 114.141 114.484C114.141 90.7184 156.89 94.3752 159.914 57.6016C170.461 59.9218 177.141 68.5 177.141 80.5232C177.141 96.0624 165.89 105.484 148.875 104.078C145.218 103.797 142.266 106.961 142.266 110.547Z" fill="url(#paint0_linear_1_108)"/>
<defs>
<linearGradient id="paint0_linear_1_108" x1="-19.9534" y1="-15.4734" x2="196.986" y2="217.053" gradientUnits="userSpaceOnUse">
<stop offset="0.156743" stop-color="#FF715E"/>
<stop offset="0.826878" stop-color="#FE821A"/>
</linearGradient>
</defs>
</svg>
