<svg width="192" height="192" viewBox="0 0 192 192" fill="none" xmlns="http://www.w3.org/2000/svg">
<path fill-rule="evenodd" clip-rule="evenodd" d="M39.5147 3.51472C41.7652 1.26428 44.8174 0 48 0C51.1826 0 54.2348 1.26428 56.4853 3.51472C58.7357 5.76515 60 8.8174 60 12V24H132V12C132 8.8174 133.264 5.76515 135.515 3.51472C137.765 1.26428 140.817 0 144 0C147.183 0 150.235 1.26428 152.485 3.51472C154.736 5.76515 156 8.8174 156 12V24H168C174.365 24 180.47 26.5286 184.971 31.0294C189.471 35.5303 192 41.6348 192 48V168C192 174.365 189.471 180.47 184.971 184.971C180.47 189.471 174.365 192 168 192H24C17.6348 192 11.5303 189.471 7.02944 184.971C2.52856 180.47 0 174.365 0 168V48C0 41.6348 2.52856 35.5303 7.02944 31.0294C11.5303 26.5286 17.6348 24 24 24H36V12C36 8.8174 37.2643 5.76515 39.5147 3.51472ZM39.5147 63.5147C41.7652 61.2643 44.8174 60 48 60H144C147.183 60 150.235 61.2643 152.485 63.5147C154.736 65.7652 156 68.8174 156 72C156 75.1826 154.736 78.2348 152.485 80.4853C150.235 82.7357 147.183 84 144 84H48C44.8174 84 41.7652 82.7357 39.5147 80.4853C37.2643 78.2348 36 75.1826 36 72C36 68.8174 37.2643 65.7652 39.5147 63.5147ZM49.3605 154.432C53.8729 157.01 59.2314 158.3 65.436 158.3C70.2438 158.3 74.5145 157.574 78.2479 156.124C81.9814 154.647 85.0434 152.579 87.4339 149.919C89.8512 147.233 91.4897 144.091 92.3492 140.492L78.7314 138.961C78.0868 140.707 77.1333 142.17 75.8709 143.352C74.6085 144.534 73.1178 145.434 71.3988 146.052C69.6798 146.643 67.7593 146.938 65.6374 146.938C62.468 146.938 59.7015 146.267 57.3378 144.924C54.9742 143.554 53.1343 141.593 51.8182 139.041C50.5465 136.55 49.8892 133.582 49.8463 130.137H92.9535V125.665C92.9535 120.24 92.2015 115.566 90.6973 111.645C89.1932 107.696 87.125 104.446 84.4928 101.895C81.8874 99.343 78.8791 97.4628 75.468 96.2541C72.0837 95.0186 68.4845 94.4008 64.6705 94.4008C58.7614 94.4008 53.6178 95.7572 49.2397 98.47C44.8616 101.156 41.4504 104.916 39.0062 109.751C36.5888 114.559 35.3802 120.146 35.3802 126.511C35.3802 132.985 36.5888 138.612 39.0062 143.393C41.4236 148.147 44.875 151.826 49.3605 154.432ZM49.8737 120.307C50.0139 117.882 50.6352 115.64 51.7376 113.579C53 111.242 54.7593 109.362 57.0155 107.938C59.2717 106.488 61.8905 105.762 64.8719 105.762C67.6653 105.762 70.1095 106.394 72.2045 107.656C74.3264 108.918 75.9783 110.651 77.1601 112.853C78.3419 115.029 78.9463 117.513 78.9731 120.307H49.8737ZM104.486 147.824V157.091H155.291V145.004H123.865V144.48L154.244 105.158V95.2066H105.534V107.293H136.395V107.817L104.486 147.824Z" fill="white"/>
</svg>
